<?xml version="1.0" encoding="UTF-8" standalone="no"?>
<!-- Created with Inkscape (http://www.inkscape.org/) -->

<svg
   width="170.49709mm"
   height="169.54521mm"
   viewBox="0 0 170.49709 169.54521"
   version="1.1"
   id="svg1"
   xmlns="http://www.w3.org/2000/svg"
   xmlns:svg="http://www.w3.org/2000/svg">
  <defs
     id="defs1" />
  <g
     id="layer1"
     transform="translate(-21.394042,-61.333208)">
    <path
       id="path8"
       style="font-weight:900;font-size:238.125px;font-family:Outfit;-inkscape-font-specification:'Outfit Heavy';letter-spacing:-63.3518px;word-spacing:-13.2292px;stroke-width:0.79375"
       d="M 21.394043,61.333207 83.544255,230.87841 H 128.788 l 48.12368,-129.29805 a 24.110701,24.110701 0 0 1 -19.46134,10.20558 24.110701,24.110701 0 0 1 -24.11068,-24.110671 24.110701,24.110701 0 0 1 0.12299,-0.935344 L 106.72889,165.16821 71.876233,61.333207 Z m 120.729067,0 -4.32377,12.68398 a 24.110701,24.110701 0 0 1 19.651,-10.452591 24.110701,24.110701 0 0 1 24.11067,24.110673 24.110701,24.110701 0 0 1 -0.28784,2.186429 l 10.61796,-28.528491 z" />
  </g>
</svg>
