<?xml version="1.0" encoding="UTF-8" standalone="no"?>
<!-- Created with Inkscape (http://www.inkscape.org/) -->

<svg
   width="132.51773"
   height="132.73605"
   viewBox="0 0 132.51773 132.73605"
   version="1.1"
   id="svg1"
   fill="#343434"
   xmlns="http://www.w3.org/2000/svg"
   xmlns:svg="http://www.w3.org/2000/svg">
  <defs
     id="defs1" />
  <g
     id="layer1"
     transform="translate(-23.703857,-23.08696)">
    <circle
       style="display:none;fill:none;stroke:#000000;stroke-width:0.4;stroke-dasharray:none;stroke-opacity:1"
       id="path1"
       cx="90"
       cy="90"
       r="53.911438" />
    <path
       d="m 144.16485,90.378593 12.05674,6.380248 -0.20744,1.987202 -13.11262,3.734787 0.27098,-2.595891 10.73727,-2.824487 -0.0934,0.895136 -9.91686,-5.034808 z m 2.06493,2.930223 2.04091,0.213045 -0.70641,6.767229 -2.04091,-0.21304 z m -7.59907,19.961894 13.56351,1.00747 -1.14969,2.38317 -10.89837,-0.98081 0.4458,-0.92408 7.53531,7.95199 -1.13406,2.35075 -9.20718,-10.03759 z m -7.07565,11.59556 5.04822,12.67233 -1.44573,1.37908 -12.40712,-5.65268 1.88857,-1.80151 10.0081,4.80673 -0.65123,0.62121 -4.2903,-10.26093 z m -0.32613,3.56984 1.41636,1.48481 -4.9233,4.69633 -1.41636,-1.48481 z m -16.29853,9.38039 5.59392,11.3504 -2.19581,1.08218 -5.59392,-11.3504 z m -11.67444,4.55817 2.29919,12.44337 -2.40725,0.44479 -2.29919,-12.44337 z m -1.77004,0.32705 0.39574,2.14175 -6.336739,1.17085 -0.395736,-2.14174 z m -14.352715,1.4671 -7.088895,11.65419 -1.971267,-0.32575 -2.945033,-13.31226 2.575079,0.42552 2.178211,10.88679 -0.887958,-0.14673 5.618062,-9.59848 z m -3.048312,1.88625 -0.334549,2.02455 -6.712964,-1.1093 0.334549,-2.02454 z m -18.931858,-8.14115 -1.003623,1.72764 -2.848274,-1.65462 q -0.762652,-0.44304 -1.454139,-0.22023 -0.707051,0.21376 -1.077758,0.8519 -0.253166,0.4358 -0.274352,0.90228 -0.02119,0.46648 0.234817,0.88582 0.231396,0.42585 0.74502,0.72423 l 2.848274,1.65462 -0.994582,1.71208 -2.614808,-1.519 q -0.653703,-0.37975 -1.232686,-0.27894 -0.594547,0.0918 -0.974296,0.74547 -0.388791,0.66927 -0.173993,1.2312 0.199234,0.5529 0.852936,0.93264 l 2.614809,1.519 -1.003622,1.72764 -2.863839,-1.66366 q -1.089503,-0.63292 -1.585945,-1.46255 -0.521047,-0.8231 -0.514842,-1.6938 -0.0028,-0.85514 0.440204,-1.61779 0.542499,-0.93387 1.516212,-1.28416 0.949107,-0.34376 2.228485,-0.0377 l -0.491218,0.63058 q -1.015102,-1.04766 -1.207681,-2.22119 -0.217184,-1.16701 0.424773,-2.27208 0.506332,-0.8716 1.358049,-1.33439 0.827112,-0.45627 1.905188,-0.41287 1.05347,0.0499 2.220795,0.72805 z m 1.556434,0.90417 -6.356278,10.94173 -2.101185,-1.22063 6.356277,-10.94173 z m -15.281914,-10.97157 -9.61914,8.22167 -1.590536,-1.86089 9.619139,-8.22167 z m -1.169512,-1.3683 -1.655642,1.41511 -4.186853,-4.89851 1.655641,-1.41511 z m -8.918616,-12.90742 -11.775693,4.63215 -0.896119,-2.27809 11.775693,-4.63214 z m -0.658911,-1.67506 -2.010076,0.79069 -2.563164,-6.51599 2.010076,-0.7907 z m -5.04194,1.98332 -1.943073,0.76434 -2.332545,-5.92972 1.943073,-0.76434 z m -4.723678,1.85813 -2.010075,0.79069 -2.530219,-6.43224 2.010076,-0.79069 z m 5.272991,-30.770108 -12.484031,-2.067052 0.399885,-2.415118 12.484031,2.067052 z m -4.820335,-2.622637 -2.148745,-0.35578 1.040877,-6.286411 2.148744,0.35578 z m -5.238676,-0.867398 -2.130987,-0.352839 1.090863,-6.588301 2.130987,0.35284 z m 17.58399,-18.728386 q -0.702782,1.19461 -1.748697,1.978519 -1.036788,0.768394 -2.253347,1.09689 -1.222946,0.303855 -2.502454,0.135874 -1.295023,-0.177108 -2.474119,-0.870763 -1.179096,-0.693655 -1.941103,-1.705802 -0.768394,-1.036788 -1.081376,-2.244219 -0.319369,-1.232073 -0.135874,-2.502455 0.167981,-1.279508 0.870763,-2.474119 0.711909,-1.210124 1.748698,-1.978519 1.021273,-0.777521 2.244219,-1.081376 1.216559,-0.328496 2.496067,-0.160515 1.279509,0.167981 2.458605,0.861636 1.179095,0.693655 1.94749,1.730443 0.768394,1.036789 1.087763,2.268861 0.312982,1.207432 0.145001,2.48694 -0.158854,1.263995 -0.861636,2.458605 z m -1.988585,-1.128105 q 0.620639,-1.054981 0.611558,-2.104513 -0.0091,-1.049532 -0.575788,-1.967669 -0.55758,-0.933651 -1.659103,-1.58167 -0.80675,-0.474607 -1.619903,-0.618838 -0.813152,-0.144232 -1.56791,0.03826 -0.770273,0.173367 -1.408226,0.654299 -0.637954,0.480931 -1.103433,1.272166 -0.602385,1.023952 -0.602431,2.088998 -0.0064,1.040405 0.551146,1.974057 0.566707,0.918136 1.652716,1.557029 0.822264,0.483733 1.650931,0.637092 0.837795,0.137845 1.583426,-0.02914 0.754758,-0.182494 1.392711,-0.663426 0.647081,-0.496446 1.094306,-1.256652 z M 51.619665,44.843676 50.4506,43.33578 52.769346,41.538067 q 0.711272,-0.551446 0.819636,-1.204862 0.111561,-0.678671 -0.38474,-1.318816 -0.452186,-0.583243 -1.148279,-0.65852 -0.692896,-0.100532 -1.404168,0.450914 l -2.318746,1.797713 -1.22421,-1.579024 2.489452,-1.93006 q 0.96733,-0.749966 1.990608,-0.928353 1.026474,-0.203643 1.932116,0.141918 0.919868,0.334532 1.581603,1.188058 0.683792,0.881977 0.778585,1.856186 0.09799,0.948954 -0.354982,1.892319 -0.464,0.929139 -1.445556,1.690134 z m 1.819957,5.28517 -7.753326,-10.000482 1.934659,-1.499933 7.753326,10.000483 z m 5.462568,-4.235103 -6.653092,-1.765825 1.348052,-1.933406 7.652237,1.879461 z m 24.321411,-9.540376 -4.710748,-12.440876 2.409182,-0.116567 3.509064,9.579607 -0.809054,0.03915 2.51389,-9.871026 1.815876,-0.08786 3.455127,9.582217 -0.827032,0.04002 2.585806,-9.874505 2.409181,-0.116568 -3.50564,12.838422 -1.815876,0.08786 -3.472236,-9.563368 0.791074,-0.03828 -2.51476,9.853046 z m 26.978699,3.877157 q -1.28441,-0.520862 -2.21261,-1.441136 -0.91151,-0.913509 -1.41408,-2.06908 -0.47913,-1.165487 -0.49974,-2.455811 -0.0138,-1.307004 0.50026,-2.57473 0.5141,-1.267726 1.40416,-2.169325 0.91351,-0.911516 2.06232,-1.397408 1.17225,-0.495808 2.45581,-0.499732 1.29032,-0.0206 2.57473,0.500257 1.30109,0.527626 2.2126,1.441135 0.91828,0.896829 1.39741,2.062317 0.50257,1.155571 0.52318,2.445894 0.0206,1.290324 -0.4935,2.55805 -0.51409,1.267726 -1.4276,2.179241 -0.91351,0.911516 -2.08576,1.407324 -1.14881,0.485892 -2.43913,0.506496 -1.27365,0.02737 -2.55805,-0.493492 z m 0.82572,-2.131965 q 1.13428,0.459981 2.17124,0.297785 1.03696,-0.162197 1.86254,-0.856864 0.84225,-0.687904 1.32252,-1.872226 0.35175,-0.867392 0.37574,-1.692888 0.024,-0.825497 -0.26674,-1.545529 -0.28396,-0.736712 -0.85287,-1.297624 -0.56891,-0.560912 -1.41962,-0.905898 -1.10092,-0.446453 -2.15456,-0.291021 -1.0302,0.145516 -1.87245,0.833419 -0.82558,0.694668 -1.29909,1.86231 -0.35851,0.884072 -0.38926,1.726249 -0.0141,0.848942 0.25998,1.562209 0.29072,0.720032 0.85963,1.280944 0.58559,0.567676 1.40294,0.899134 z m 18.02764,7.335261 1.31783,-1.379779 2.12173,2.026475 q 0.65084,0.621617 1.3131,0.631872 0.68771,0.0097 1.24717,-0.576086 0.50973,-0.533688 0.48093,-1.233247 -0.003,-0.700143 -0.65418,-1.321761 l -2.12174,-2.026474 1.37999,-1.444862 2.27794,2.175662 q 0.88514,0.8454 1.21332,1.830904 0.35363,0.984918 0.14621,1.931796 -0.1944,0.95931 -0.94034,1.740317 -0.77081,0.80704 -1.72018,1.045274 -0.92393,0.237649 -1.92404,-0.0704 -0.98768,-0.321063 -1.88584,-1.178895 z m -4.95679,2.583697 8.73994,-9.150795 1.77029,1.690801 -8.73995,9.150794 z m 4.99844,4.774025 0.75954,-6.841407 2.11196,1.04639 -0.72373,7.846356 z m 10.64752,16.244694 3.56133,-7.816406 7.77097,2.184059 1.33066,2.755529 -8.50716,-2.508169 1.02117,-0.493128 -3.82283,8.682271 z m -3.32666,-6.888823 11.39493,-5.502675 1.06453,2.204424 -11.39493,5.502675 z"
       id="text3"
       style="font-weight:600;font-size:18px;line-height:1.25;font-family:Outfit;-inkscape-font-specification:'Outfit Semi-Bold';letter-spacing:7.5px"
       aria-label="AVAILABLE FOR WORK" />
  </g>
</svg>
